<?xml version="1.0" encoding="UTF-8"?>
<svg version="1.1" xmlns="http://www.w3.org/2000/svg" width="356" height="356">
<path d="M0 0 C117.48 0 234.96 0 356 0 C356 117.48 356 234.96 356 356 C238.52 356 121.04 356 0 356 C0 238.52 0 121.04 0 0 Z " fill="#2745E4" transform="translate(0,0)"/>
<path d="M0 0 C0.6084375 0.23976563 1.216875 0.47953125 1.84375 0.7265625 C3.7504857 -0.2100796 5.65276513 -1.15856431 7.515625 -2.1796875 C18.5621753 -7.369342 32.65546228 -6.30003242 43.84375 -2.2734375 C48.22050911 -0.07037084 52.36521532 2.24802782 55.84375 5.7265625 C56.09375 8.2265625 56.09375 8.2265625 55.84375 10.7265625 C53.84375 12.7265625 53.84375 12.7265625 51.10546875 13.03515625 C47.33461736 12.67839306 44.98007921 11.5794648 41.65625 9.7890625 C33.59572295 5.50025377 26.06070428 4.26374973 16.98828125 6.3984375 C14.91273281 7.09798642 12.87258436 7.90127395 10.84375 8.7265625 C12.34561444 12.95908957 14.49401713 16.626423 16.8203125 20.4453125 C18.003339 23.08228759 18.11689716 24.8657054 17.84375 27.7265625 C16.65625 29.5390625 16.65625 29.5390625 14.84375 30.7265625 C12.34375 31.2265625 12.34375 31.2265625 9.84375 30.7265625 C8.23892439 28.3256423 6.90078075 25.83120299 5.51953125 23.296875 C0.93068031 15.06587017 -4.78123191 8.92310584 -13.67578125 5.38671875 C-22.27441234 3.09826418 -30.47102454 4.40831693 -38.15625 8.7265625 C-43.97928073 12.44647986 -43.97928073 12.44647986 -48.15625 17.7265625 C-47.56972656 17.98953125 -46.98320312 18.2525 -46.37890625 18.5234375 C-40.8030758 21.54163746 -36.26380059 26.77583144 -34.15625 32.7265625 C-33.84375 36.4765625 -33.84375 36.4765625 -34.15625 39.7265625 C-36.15625 41.7265625 -36.15625 41.7265625 -38.58984375 42.11328125 C-41.15625 41.7265625 -41.15625 41.7265625 -42.81640625 39.93359375 C-43.27917969 39.14339844 -43.74195313 38.35320312 -44.21875 37.5390625 C-44.7240625 36.71792969 -45.229375 35.89679688 -45.75 35.05078125 C-46.44609375 33.90029297 -46.44609375 33.90029297 -47.15625 32.7265625 C-50.31113736 28.32884072 -53.20390262 25.6042874 -58.46875 24.0390625 C-65.87637738 23.17771048 -70.9453873 23.3802445 -77.15625 27.7265625 C-82.29804012 32.20676789 -84.47228807 37.21228871 -86.15625 43.7265625 C-84.91875 43.6028125 -83.68125 43.4790625 -82.40625 43.3515625 C-75.92251085 43.36188693 -70.32616447 45.91146484 -65.15625 49.7265625 C-63.78125 53.4765625 -63.78125 53.4765625 -64.15625 56.7265625 C-66.15625 58.7265625 -66.15625 58.7265625 -68.78125 59.1015625 C-72.00468083 58.74340352 -73.20137818 58.27063913 -75.90625 56.7265625 C-80.63552479 54.20849443 -84.89065808 53.75702494 -90.15625 54.7265625 C-95.18605797 56.83527924 -99.36562388 60.00396445 -102.15625 64.7265625 C-102.81625 67.6965625 -103.47625 70.6665625 -104.15625 73.7265625 C-65.05125 73.2315625 -65.05125 73.2315625 -25.15625 72.7265625 C-22.84625 64.8065625 -20.53625 56.8865625 -18.15625 48.7265625 C-17.16625 45.4265625 -16.17625 42.1265625 -15.15625 38.7265625 C4.64375 38.7265625 24.44375 38.7265625 44.84375 38.7265625 C42.4029991 50.930317 36.46586907 62.17126483 31.84375 73.7265625 C54.61375 73.7265625 77.38375 73.7265625 100.84375 73.7265625 C101.17375 72.4065625 101.50375 71.0865625 101.84375 69.7265625 C102.62772036 68.32283179 103.46373636 66.94716476 104.34375 65.6015625 C107.70776764 60.41862835 108.56799673 56.94714738 107.84375 50.7265625 C106.471889 46.66784421 104.71248723 43.54703655 101.59375 40.6015625 C99.84375 38.7265625 99.84375 38.7265625 99.46875 35.6015625 C99.84375 32.7265625 99.84375 32.7265625 101.84375 30.7265625 C104.53125 30.1015625 104.53125 30.1015625 107.84375 30.7265625 C113.97555694 35.7194161 118.18233528 42.74890531 119.22265625 50.578125 C119.5481892 58.70594763 117.45509193 65.50387864 113.84375 72.7265625 C116.15375 73.0565625 118.46375 73.3865625 120.84375 73.7265625 C120.84375 117.9465625 120.84375 162.1665625 120.84375 207.7265625 C105.99375 207.7265625 91.14375 207.7265625 75.84375 207.7265625 C75.51375 180.0065625 75.18375 152.2865625 74.84375 123.7265625 C70.88375 129.0065625 66.92375 134.2865625 62.84375 139.7265625 C56.58946918 147.56087216 56.58946918 147.56087216 53.90234375 150.890625 C50.13234602 155.59191995 46.48756901 160.38679369 42.83789062 165.18164062 C37.16332525 172.63329409 31.40864747 180.02142629 25.64941406 187.40771484 C23.77089314 189.82012584 21.89666163 192.23581795 20.0234375 194.65234375 C19.39687256 195.46002197 18.77030762 196.2677002 18.12475586 197.09985352 C16.93207727 198.63749437 15.74013313 200.17570532 14.54907227 201.71459961 C11.38860599 205.7859549 8.16889283 209.78840451 4.84375 213.7265625 C0.76913836 209.81011509 -2.80455669 205.62861262 -6.34375 201.2265625 C-7.19912354 200.16816162 -7.19912354 200.16816162 -8.07177734 199.08837891 C-12.36037284 193.76274269 -16.55081067 188.36874554 -20.69921875 182.93359375 C-23.3002758 179.52802127 -25.94316993 176.15616685 -28.59375 172.7890625 C-29.05152832 172.20753418 -29.50930664 171.62600586 -29.98095703 171.02685547 C-30.90884621 169.8486611 -31.83690654 168.67060151 -32.76513672 167.49267578 C-35.52495065 163.98890358 -38.27924062 160.48078456 -41.03320312 156.97241211 C-43.30718062 154.07631631 -45.58484434 151.18329575 -47.87109375 148.296875 C-54.78936537 139.5423333 -61.45498981 130.66157608 -68.15625 121.7265625 C-68.48625 150.1065625 -68.81625 178.4865625 -69.15625 207.7265625 C-84.00625 207.7265625 -98.85625 207.7265625 -114.15625 207.7265625 C-114.20142074 189.46333923 -114.2382531 171.20016129 -114.25987434 152.93689632 C-114.2701809 144.45668982 -114.28422938 135.97652052 -114.30712891 127.49633789 C-114.32708177 120.10383455 -114.33997095 112.71135816 -114.34442699 105.31882864 C-114.34703116 101.40561782 -114.35313917 97.4924841 -114.36771011 93.57929802 C-114.38132399 89.89314334 -114.38546497 86.20709724 -114.38246536 82.5209198 C-114.38327457 80.52911491 -114.39401626 78.53732175 -114.40509033 76.54554749 C-114.38023633 65.73351195 -112.95972735 58.65125891 -105.15625 50.7265625 C-102.98828125 49.46484375 -102.98828125 49.46484375 -100.84375 48.4140625 C-98.75384008 47.36580864 -98.75384008 47.36580864 -97.15625 45.7265625 C-96.32188547 42.76876231 -96.01758724 39.91268202 -95.6875 36.859375 C-94.37515003 29.12037002 -89.28707338 22.98694933 -83.265625 18.19921875 C-74.80158851 12.29006735 -67.23187769 12.24866712 -57.15625 12.7265625 C-56.92164063 12.159375 -56.68703125 11.5921875 -56.4453125 11.0078125 C-52.56615881 4.14288596 -44.61878823 -1.78133525 -37.15625 -4.2734375 C-23.82750216 -7.79923777 -12.08402989 -7.13658287 0 0 Z " fill="#FDFDFE" transform="translate(176.15625,53.2734375)"/>
<path d="M0 0 C1.72974441 0.00015918 3.45949355 0.0058569 5.18920898 0.01586914 C6.09783188 0.01728409 7.00645477 0.01869904 7.94261169 0.02015686 C10.85687494 0.02577346 13.77106254 0.03832874 16.68530273 0.05102539 C18.65600475 0.05603825 20.62670797 0.06060153 22.59741211 0.06469727 C27.43923832 0.07574828 32.28100768 0.09302401 37.12280273 0.11352539 C35.20175702 6.17624147 32.98984169 12.01790743 30.43530273 17.84008789 C30.09152588 18.63200531 29.74774902 19.42392273 29.39355469 20.23983765 C28.30687011 22.74096987 27.21497388 25.23978485 26.12280273 27.73852539 C25.39067739 29.42066281 24.6589037 31.10295332 23.92749023 32.78540039 C22.31186936 36.50091577 20.69290159 40.21495193 19.07080078 43.92764282 C17.74473933 46.98525947 16.43565122 50.05021225 15.12280273 53.11352539 C32.94280273 48.65852539 32.94280273 48.65852539 51.12280273 44.11352539 C49.57581026 47.98100657 47.95815362 51.44312556 45.99780273 55.09399414 C45.06979858 56.82540649 45.06979858 56.82540649 44.12304688 58.59179688 C43.45647389 59.82830077 42.78972181 61.06470813 42.12280273 62.30102539 C41.43450765 63.58102099 40.74627572 64.86105056 40.05810547 66.14111328 C35.7133958 74.21238678 31.31214099 82.25019733 26.83764648 90.25024414 C23.63472099 95.97758227 20.46398418 101.72267782 17.29373169 107.46813965 C16.59952034 108.72615844 15.90508467 109.98405348 15.2104187 111.24182129 C11.61704827 117.74820461 8.0357347 124.26035933 4.49780273 130.79711914 C3.94592285 131.81580078 3.39404297 132.83448242 2.82543945 133.8840332 C1.79784845 135.78401111 0.7732783 137.68562693 -0.24780273 139.58911133 C-0.7004248 140.42603516 -1.15304688 141.26295898 -1.61938477 142.12524414 C-2.00980957 142.85187256 -2.40023437 143.57850098 -2.80249023 144.32714844 C-3.87719727 146.11352539 -3.87719727 146.11352539 -5.87719727 148.11352539 C-5.48310254 140.93828341 -4.56798104 134.00212612 -3.17480469 126.95336914 C-1.91901465 120.53040974 -0.89061157 114.07869305 0.12280273 107.61352539 C1.62268215 98.07719299 3.25941548 88.58574395 5.12280273 79.11352539 C1.26760094 80.54825973 -2.58616679 81.98680874 -6.43969727 83.42602539 C-7.52573242 83.83014648 -8.61176758 84.23426758 -9.73071289 84.65063477 C-16.40519056 87.1397093 -16.40519056 87.1397093 -22.96704102 89.90649414 C-25.87719727 91.11352539 -25.87719727 91.11352539 -28.87719727 91.11352539 C-28.19789471 85.29206045 -26.8268622 79.81558189 -25.25219727 74.17602539 C-24.98785889 73.21656006 -24.72352051 72.25709473 -24.45117188 71.26855469 C-22.24376988 63.30630156 -19.90534995 55.38434068 -17.56323242 47.4609375 C-14.9340448 38.4821095 -12.57278024 29.44102968 -10.27392578 20.37255859 C-5.13287949 0.15029211 -5.13287949 0.15029211 0 0 Z " fill="#F68F21" transform="translate(171.877197265625,99.886474609375)"/>
<path d="M0 0 C6.67795466 4.24108699 9.78901325 10.10141476 12.2265625 17.4140625 C13.13632339 25.60191052 10.93357819 31.65675163 6.2265625 38.4140625 C2.58687583 41.72286856 -1.41118589 43.77463827 -5.8359375 45.8515625 C-9.41993571 47.75794453 -12.08688371 50.22490459 -15.0390625 52.98828125 C-16.7734375 54.4140625 -16.7734375 54.4140625 -18.7734375 54.4140625 C-19.1034375 55.7340625 -19.4334375 57.0540625 -19.7734375 58.4140625 C-20.4334375 58.4140625 -21.0934375 58.4140625 -21.7734375 58.4140625 C-21.7734375 59.7340625 -21.7734375 61.0540625 -21.7734375 62.4140625 C-24.15907827 61.83821818 -26.44026534 61.19178655 -28.7734375 60.4140625 C-27.7834375 61.0740625 -26.7934375 61.7340625 -25.7734375 62.4140625 C-25.7734375 63.0740625 -25.7734375 63.7340625 -25.7734375 64.4140625 C-32.26486315 63.99070865 -37.10836739 61.50306451 -42.7734375 58.4140625 C-43.29696241 48.42830949 -43.29696241 48.42830949 -39.7734375 43.4140625 C-37.17865689 36.38848322 -37.44676959 29.36578168 -37.47070312 21.95117188 C-37.3116512 14.14736606 -35.47037746 9.27254232 -30.0637207 3.62963867 C-21.16173957 -4.85741386 -10.60936181 -5.87949153 0 0 Z " fill="#E8AF1C" transform="translate(275.7734375,36.5859375)"/>
<path d="M0 0 C0.9590625 0.01160156 0.9590625 0.01160156 1.9375 0.0234375 C5.76219596 1.13897382 8.17134777 3.16912611 10.14697266 6.64013672 C11.2732221 9.02718085 12.3076753 11.43443905 13.3125 13.875 C13.67150391 14.71546875 14.03050781 15.5559375 14.40039062 16.421875 C15.27942645 18.48467906 16.14537736 20.55199062 17 22.625 C20.58150849 18.34957424 22.68143923 13.3007024 25.0390625 8.29296875 C25.37679687 7.59558594 25.71453125 6.89820313 26.0625 6.1796875 C26.36285156 5.54530762 26.66320312 4.91092773 26.97265625 4.25732422 C28 2.625 28 2.625 31 0.625 C36.59016393 -0.00614754 36.59016393 -0.00614754 39 0.625 C42.29312308 3.27469607 43.84503211 4.71818791 44.56762695 8.9465332 C44.54144287 10.17718506 44.51525879 11.40783691 44.48828125 12.67578125 C44.48120651 13.33458786 44.47413177 13.99339447 44.46684265 14.67216492 C44.43900979 16.76180034 44.37630819 18.84868476 44.3125 20.9375 C44.28740205 22.35998714 44.26459148 23.78251659 44.24414062 25.20507812 C44.18922446 28.67926861 44.10303685 32.1518655 44 35.625 C41.03 35.625 38.06 35.625 35 35.625 C35 27.705 35 19.785 35 11.625 C34.34 11.625 33.68 11.625 33 11.625 C32.7525 12.44484375 32.505 13.2646875 32.25 14.109375 C30.79232263 18.20909259 28.96026885 21.99707683 27 25.875 C26.64421875 26.59429687 26.2884375 27.31359375 25.921875 28.0546875 C23.25352444 33.37147556 23.25352444 33.37147556 21 35.625 C17.6875 36.25 17.6875 36.25 14 35.625 C11.67183807 33.34491221 10.42911878 30.52514719 9 27.625 C8.38053107 26.43144696 7.75931464 25.2387999 7.13671875 24.046875 C2 14.08420898 2 14.08420898 2 11.625 C1.34 11.625 0.68 11.625 0 11.625 C0 19.545 0 27.465 0 35.625 C-2.97 35.625 -5.94 35.625 -9 35.625 C-9.12426099 31.60506153 -9.21464411 27.58587721 -9.2746582 23.56445312 C-9.2996928 22.19869497 -9.33373218 20.83306933 -9.37719727 19.46777344 C-9.77452431 6.6598193 -9.77452431 6.6598193 -6.73046875 2.734375 C-2.98821037 -0.15664006 -2.98821037 -0.15664006 0 0 Z " fill="#F5B718" transform="translate(46,270.375)"/>
<path d="M0 0 C1.23298828 -0.02900391 2.46597656 -0.05800781 3.73632812 -0.08789062 C15.04716267 -0.16724348 15.04716267 -0.16724348 19.8125 4.3125 C24.24213029 9.34072897 25.11812691 12.19642994 25.0234375 18.77734375 C24.60175078 23.84539345 22.49552433 26.90146805 18.75 30.125 C14.64003989 33.18560859 12.82588328 33.44017064 7.74609375 33.4453125 C6.53888672 33.44660156 5.33167969 33.44789063 4.08789062 33.44921875 C2.18813477 33.44341797 2.18813477 33.44341797 0.25 33.4375 C-1.02037109 33.44136719 -2.29074219 33.44523437 -3.59960938 33.44921875 C-4.80552734 33.44792969 -6.01144531 33.44664062 -7.25390625 33.4453125 C-8.36709229 33.44418457 -9.48027832 33.44305664 -10.62719727 33.44189453 C-13.1875 33.3125 -13.1875 33.3125 -14.1875 32.3125 C-14.2877093 30.03302208 -14.31831303 27.75042865 -14.3203125 25.46875 C-14.32126923 24.78445923 -14.32222595 24.10016846 -14.32321167 23.3951416 C-14.3238933 21.94588123 -14.32204023 20.49661782 -14.31787109 19.04736328 C-14.31252252 16.82187072 -14.3178166 14.59657999 -14.32421875 12.37109375 C-14.32355797 10.96614539 -14.3222768 9.56119715 -14.3203125 8.15625 C-14.31918457 6.86912109 -14.31805664 5.58199219 -14.31689453 4.25585938 C-14.02165836 -2.45992799 -5.25041959 0.04053335 0 0 Z " fill="#F5B718" transform="translate(231.1875,271.6875)"/>
<path d="M0 0 C0.72822464 0.00424484 1.45644928 0.00848969 2.20674133 0.01286316 C4.53013252 0.02964142 6.85265275 0.0672902 9.17578125 0.10546875 C10.75194059 0.12051678 12.32811354 0.13420498 13.90429688 0.14648438 C17.76596002 0.1795419 21.62697303 0.23131681 25.48828125 0.29296875 C25.48828125 3.59296875 25.48828125 6.89296875 25.48828125 10.29296875 C16.90828125 10.29296875 8.32828125 10.29296875 -0.51171875 10.29296875 C-0.51171875 11.61296875 -0.51171875 12.93296875 -0.51171875 14.29296875 C8.06828125 14.29296875 16.64828125 14.29296875 25.48828125 14.29296875 C25.48828125 16.60296875 25.48828125 18.91296875 25.48828125 21.29296875 C16.90828125 21.29296875 8.32828125 21.29296875 -0.51171875 21.29296875 C-0.51171875 22.61296875 -0.51171875 23.93296875 -0.51171875 25.29296875 C8.06828125 25.29296875 16.64828125 25.29296875 25.48828125 25.29296875 C25.48828125 28.59296875 25.48828125 31.89296875 25.48828125 35.29296875 C21.0042664 35.36724524 16.52057951 35.42162986 12.03613281 35.45776367 C10.51132975 35.47283026 8.98656989 35.49328751 7.46191406 35.51928711 C5.26746959 35.55576581 3.07359909 35.57271589 0.87890625 35.5859375 C-0.44077148 35.60164795 -1.76044922 35.6173584 -3.12011719 35.63354492 C-6.72601307 35.27144985 -8.19952323 35.07789259 -10.51171875 32.29296875 C-11.01342773 29.33789062 -11.01342773 29.33789062 -11.0078125 25.76171875 C-11.00845703 24.47652344 -11.00910156 23.19132812 -11.00976562 21.8671875 C-10.99937256 21.19864746 -10.98897949 20.53010742 -10.97827148 19.84130859 C-10.94931322 17.79962901 -10.957662 15.76054659 -10.97070312 13.71875 C-10.90734064 3.99991913 -10.90734064 3.99991913 -9.45410156 1.40307617 C-6.43043771 -0.32500321 -3.38318633 -0.07416254 0 0 Z " fill="#ECB121" transform="translate(104.51171875,270.70703125)"/>
<path d="M0 0 C0.70837509 0.00718552 1.41675018 0.01437103 2.14659119 0.02177429 C3.23749306 0.02246162 3.23749306 0.02246162 4.35043335 0.02316284 C5.88788993 0.02618468 7.42534346 0.03406899 8.9627533 0.0464325 C11.32427229 0.06469731 13.68539954 0.06694214 16.04698181 0.06669617 C17.53852168 0.07161101 19.03005888 0.07743918 20.52159119 0.08427429 C21.23199051 0.08538712 21.94238983 0.08649994 22.67431641 0.08764648 C27.65163129 0.13618939 27.65163129 0.13618939 28.76768494 1.25224304 C28.90049744 3.06474304 28.90049744 3.06474304 28.89268494 5.25224304 C28.89655212 6.33505554 28.89655212 6.33505554 28.90049744 7.43974304 C28.76768494 9.25224304 28.76768494 9.25224304 27.76768494 10.25224304 C25.84100986 10.33972511 23.91116633 10.35921638 21.98252869 10.34989929 C20.81270447 10.34667664 19.64288025 10.34345398 18.43760681 10.34013367 C17.20590759 10.33175476 15.97420837 10.32337585 14.70518494 10.31474304 C12.85183533 10.30797546 12.85183533 10.30797546 10.96104431 10.30107117 C7.89654377 10.28923912 4.83213772 10.27275477 1.76768494 10.25224304 C1.76768494 11.57224304 1.76768494 12.89224304 1.76768494 14.25224304 C10.67768494 14.25224304 19.58768494 14.25224304 28.76768494 14.25224304 C28.76768494 16.56224304 28.76768494 18.87224304 28.76768494 21.25224304 C19.85768494 21.25224304 10.94768494 21.25224304 1.76768494 21.25224304 C1.76768494 22.57224304 1.76768494 23.89224304 1.76768494 25.25224304 C2.94125549 25.24438782 2.94125549 25.24438782 4.13853455 25.2363739 C7.66074327 25.21567198 11.18293924 25.20260466 14.70518494 25.18974304 C16.55273376 25.17717468 16.55273376 25.17717468 18.43760681 25.16435242 C19.60743103 25.16112976 20.77725525 25.1579071 21.98252869 25.15458679 C23.60856018 25.14673157 23.60856018 25.14673157 25.2674408 25.13871765 C27.76768494 25.25224304 27.76768494 25.25224304 28.76768494 26.25224304 C28.90049744 28.06474304 28.90049744 28.06474304 28.89268494 30.25224304 C28.89655212 31.33505554 28.89655212 31.33505554 28.90049744 32.43974304 C28.76768494 34.25224304 28.76768494 34.25224304 27.76768494 35.25224304 C23.24354168 35.47105829 18.71406728 35.4380337 14.18516541 35.43754578 C11.90909497 35.43972731 9.63351294 35.45786533 7.35752869 35.47685242 C5.91351993 35.47978727 4.46950887 35.48177145 3.02549744 35.48271179 C1.70694763 35.48682068 0.38839783 35.49092957 -0.97010803 35.49516296 C-4.23231506 35.25224304 -4.23231506 35.25224304 -7.23231506 33.25224304 C-7.60462952 30.21122742 -7.60462952 30.21122742 -7.59559631 26.34599304 C-7.59609482 25.66548889 -7.59659332 24.98498474 -7.59710693 24.28385925 C-7.59476588 22.84474264 -7.58503536 21.40562199 -7.5684967 19.96659851 C-7.54490509 17.76066067 -7.54793453 15.55593118 -7.55458069 13.34989929 C-7.50143375 0.0351117 -7.50143375 0.0351117 0 0 Z " fill="#ECB220" transform="translate(185.23231506347656,270.7477569580078)"/>
<path d="M0 0 C1.25361328 0.00322266 2.50722656 0.00644531 3.79882812 0.00976562 C5.76432617 0.02233398 5.76432617 0.02233398 7.76953125 0.03515625 C9.10481606 0.04017308 10.44010266 0.04473566 11.77539062 0.04882812 C15.04431598 0.0606293 18.31315116 0.07709328 21.58203125 0.09765625 C21.58203125 3.39765625 21.58203125 6.69765625 21.58203125 10.09765625 C13.00203125 10.42765625 4.42203125 10.75765625 -4.41796875 11.09765625 C-4.41796875 11.75765625 -4.41796875 12.41765625 -4.41796875 13.09765625 C-3.83829346 13.11223877 -3.25861816 13.12682129 -2.66137695 13.1418457 C-0.01709322 13.21664153 2.62597127 13.31319523 5.26953125 13.41015625 C6.18154297 13.43271484 7.09355469 13.45527344 8.03320312 13.47851562 C14.12330096 13.72211954 17.88756383 14.4961015 22.39453125 18.84765625 C24.12771234 22.13157831 24.03135758 24.4388561 23.58203125 28.09765625 C21.39408015 31.61400624 19.43260077 33.62807959 15.58203125 35.09765625 C12.37402344 35.32470703 12.37402344 35.32470703 8.62890625 35.29296875 C7.96868469 35.29013885 7.30846313 35.28730896 6.62823486 35.28439331 C4.52931228 35.2732404 2.43082383 35.24814571 0.33203125 35.22265625 C-1.0950459 35.21262009 -2.52212977 35.20349535 -3.94921875 35.1953125 C-7.43894203 35.17331736 -10.92841298 35.13882161 -14.41796875 35.09765625 C-14.41796875 31.79765625 -14.41796875 28.49765625 -14.41796875 25.09765625 C-5.17796875 25.09765625 4.06203125 25.09765625 13.58203125 25.09765625 C13.25203125 24.10765625 12.92203125 23.11765625 12.58203125 22.09765625 C12.00235596 22.08307373 11.42268066 22.06849121 10.82543945 22.0534668 C8.18115572 21.97867097 5.53809123 21.88211727 2.89453125 21.78515625 C1.98251953 21.76259766 1.07050781 21.74003906 0.13085938 21.71679688 C-4.78952734 21.51998141 -8.47665152 21.37042657 -12.41796875 18.09765625 C-15.08931338 14.09063931 -15.24450156 10.80889329 -14.41796875 6.09765625 C-10.1633497 0.57815046 -6.69392614 -0.03028926 0 0 Z " fill="#EDB220" transform="translate(303.41796875,270.90234375)"/>
<path d="M0 0 C3.3 0 6.6 0 10 0 C10 3.96 10 7.92 10 12 C16.27 12 22.54 12 29 12 C28.979375 10.205625 28.95875 8.41125 28.9375 6.5625 C28.9161878 4.70833878 28.92773498 2.85287502 29 1 C29.33 0.67 29.66 0.34 30 0 C32.97 0 35.94 0 39 0 C39 11.55 39 23.1 39 35 C36.03 35 33.06 35 30 35 C29 34 29 34 28.90234375 31.27734375 C28.93489583 28.18489583 28.96744792 25.09244792 29 22 C22.73 22 16.46 22 10 22 C10 26.29 10 30.58 10 35 C6.7 35 3.4 35 0 35 C0 23.45 0 11.9 0 0 Z " fill="#ECB121" transform="translate(134,271)"/>
<path d="M0 0 C1.51400391 0.01740234 1.51400391 0.01740234 3.05859375 0.03515625 C4.07050781 0.04417969 5.08242188 0.05320313 6.125 0.0625 C7.29869141 0.07990234 7.29869141 0.07990234 8.49609375 0.09765625 C8.12109375 2.53515625 8.12109375 2.53515625 7.49609375 5.09765625 C6.50609375 5.59265625 6.50609375 5.59265625 5.49609375 6.09765625 C5.16609375 5.76765625 4.83609375 5.43765625 4.49609375 5.09765625 C4.54378906 5.8246875 4.59148437 6.55171875 4.640625 7.30078125 C4.4778923 10.44987892 3.73241995 12.12464617 2.18359375 14.84765625 C1.75433594 15.62625 1.32507813 16.40484375 0.8828125 17.20703125 C-0.50390625 19.09765625 -0.50390625 19.09765625 -3.50390625 20.09765625 C-3.17390625 21.08765625 -2.84390625 22.07765625 -2.50390625 23.09765625 C-3.44140625 25.78515625 -3.44140625 25.78515625 -4.50390625 28.09765625 C-5.82390625 28.09765625 -7.14390625 28.09765625 -8.50390625 28.09765625 C-8.17390625 29.41765625 -7.84390625 30.73765625 -7.50390625 32.09765625 C-8.16390625 32.09765625 -8.82390625 32.09765625 -9.50390625 32.09765625 C-9.58512549 33.70098416 -9.64319759 35.30549651 -9.69140625 36.91015625 C-9.72621094 37.80347656 -9.76101562 38.69679687 -9.796875 39.6171875 C-9.71768778 42.12290604 -9.71768778 42.12290604 -8.19140625 43.78515625 C-5.72337812 45.70473369 -3.13080121 47.40476838 -0.50390625 49.09765625 C-0.83390625 50.08765625 -1.16390625 51.07765625 -1.50390625 52.09765625 C-2.16390625 52.09765625 -2.82390625 52.09765625 -3.50390625 52.09765625 C-3.50390625 53.41765625 -3.50390625 54.73765625 -3.50390625 56.09765625 C-5.88954702 55.52181193 -8.17073409 54.8753803 -10.50390625 54.09765625 C-9.51390625 54.75765625 -8.52390625 55.41765625 -7.50390625 56.09765625 C-7.50390625 56.75765625 -7.50390625 57.41765625 -7.50390625 58.09765625 C-13.9953319 57.6743024 -18.83883614 55.18665826 -24.50390625 52.09765625 C-25.02743116 42.11190324 -25.02743116 42.11190324 -21.50390625 37.09765625 C-20.78224434 34.78074171 -20.10331096 32.44916702 -19.50390625 30.09765625 C-18.8168307 32.58830513 -18.50390625 34.47651917 -18.50390625 37.09765625 C-16.19390625 38.08765625 -13.88390625 39.07765625 -11.50390625 40.09765625 C-11.44332031 39.54078125 -11.38273438 38.98390625 -11.3203125 38.41015625 C-10.7592006 33.29972168 -10.15299773 28.19766072 -9.50390625 23.09765625 C-7.85390625 22.76765625 -6.20390625 22.43765625 -4.50390625 22.09765625 C-6.15390625 21.76765625 -7.80390625 21.43765625 -9.50390625 21.09765625 C-9.50390625 19.77765625 -9.50390625 18.45765625 -9.50390625 17.09765625 C-10.16390625 17.75765625 -10.82390625 18.41765625 -11.50390625 19.09765625 C-11.62890625 16.22265625 -11.62890625 16.22265625 -11.50390625 13.09765625 C-10.84390625 12.43765625 -10.18390625 11.77765625 -9.50390625 11.09765625 C-9.50390625 10.10765625 -9.50390625 9.11765625 -9.50390625 8.09765625 C-8.84390625 7.43765625 -8.18390625 6.77765625 -7.50390625 6.09765625 C-6.18390625 6.09765625 -4.86390625 6.09765625 -3.50390625 6.09765625 C-3.52453125 5.29328125 -3.54515625 4.48890625 -3.56640625 3.66015625 C-3.48296946 0.23924791 -3.41254497 0.13309458 0 0 Z " fill="#706958" transform="translate(257.50390625,42.90234375)"/>
<path d="M0 0 C3.8518686 0.0692616 6.61304411 0.25432807 9.61083984 2.77099609 C12.88474657 6.81523381 13.26786631 9.16440254 12.73583984 14.39599609 C10.56309764 17.0261577 8.78910196 18.86936503 5.73583984 20.39599609 C3.01823876 20.4678143 0.32724597 20.48899115 -2.38916016 20.45849609 C-3.14326172 20.45398438 -3.89736328 20.44947266 -4.67431641 20.44482422 C-6.53763142 20.43303109 -8.40090571 20.41509551 -10.26416016 20.39599609 C-10.2930453 17.25018186 -10.31091939 14.1044014 -10.32666016 10.95849609 C-10.33503906 10.06066406 -10.34341797 9.16283203 -10.35205078 8.23779297 C-10.35527344 7.38378906 -10.35849609 6.52978516 -10.36181641 5.64990234 C-10.36967163 4.46376343 -10.36967163 4.46376343 -10.37768555 3.25366211 C-10.08845098 -1.4792107 -3.62633227 0.03666407 0 0 Z " fill="#F1F3FD" transform="translate(236.26416015625,318.60400390625)"/>
<path d="M0 0 C2.9375 -0.375 2.9375 -0.375 6 0 C8.71055563 2.145289 9.86355161 4.53741589 11.1875 7.6875 C11.53167969 8.49574219 11.87585938 9.30398438 12.23046875 10.13671875 C12.48441406 10.75160156 12.73835938 11.36648438 13 12 C13.42152344 11.21753906 13.84304688 10.43507813 14.27734375 9.62890625 C14.82519531 8.61699219 15.37304688 7.60507812 15.9375 6.5625 C16.75541016 5.04849609 16.75541016 5.04849609 17.58984375 3.50390625 C19 1 19 1 20 0 C25.37977893 -0.46780686 25.37977893 -0.46780686 27.67700195 1.26489258 C29.28536554 3.37425593 29.35215621 4.38774128 29.29296875 7.01171875 C29.28330078 7.76904297 29.27363281 8.52636719 29.26367188 9.30664062 C29.23853516 10.09232422 29.21339844 10.87800781 29.1875 11.6875 C29.16719727 12.88342773 29.16719727 12.88342773 29.14648438 14.10351562 C29.11117089 16.06929967 29.05736447 18.03473582 29 20 C27.02 20 25.04 20 23 20 C22.67 16.37 22.34 12.74 22 9 C20.02 12.63 18.04 16.26 16 20 C14.02 20 12.04 20 10 20 C8.02 15.71 6.04 11.42 4 7 C3.67 11.29 3.34 15.58 3 20 C1.35 20 -0.3 20 -2 20 C-2.05392397 17.22890693 -2.09363455 14.45886182 -2.125 11.6875 C-2.14175781 10.90181641 -2.15851563 10.11613281 -2.17578125 9.30664062 C-2.18544922 8.1706543 -2.18544922 8.1706543 -2.1953125 7.01171875 C-2.20578613 6.31522217 -2.21625977 5.61872559 -2.22705078 4.90112305 C-2 3 -2 3 0 0 Z " fill="#F3F4FD" transform="translate(276,319)"/>
<path d="M0 0 C4.42301781 1.67769641 4.67240106 2.75343482 6.5625 6.9375 C7.27650232 8.73972451 7.9724378 10.54963015 8.625 12.375 C10.62050146 10.37949854 11.43876393 8.89575165 12.625 6.375 C13.81123607 3.85424835 14.62949854 2.37050146 16.625 0.375 C20.1875 0.625 20.1875 0.625 23.625 1.375 C25.27997356 4.68494713 24.72584335 8.36623 24.6875 12 C24.68298828 12.80179687 24.67847656 13.60359375 24.67382812 14.4296875 C24.66203168 16.41149006 24.64409605 18.39325433 24.625 20.375 C22.645 20.375 20.665 20.375 18.625 20.375 C18.295 16.745 17.965 13.115 17.625 9.375 C15.645 13.005 13.665 16.635 11.625 20.375 C9.975 20.375 8.325 20.375 6.625 20.375 C5.61991199 18.58618264 4.62107264 16.79385304 3.625 15 C2.7896875 13.50339844 2.7896875 13.50339844 1.9375 11.9765625 C0.625 9.375 0.625 9.375 0.625 7.375 C-0.035 7.375 -0.695 7.375 -1.375 7.375 C-1.375 11.665 -1.375 15.955 -1.375 20.375 C-3.025 20.375 -4.675 20.375 -6.375 20.375 C-6.45589542 17.60358283 -6.51544062 14.83452181 -6.5625 12.0625 C-6.60020508 10.88397461 -6.60020508 10.88397461 -6.63867188 9.68164062 C-6.64833984 8.92431641 -6.65800781 8.16699219 -6.66796875 7.38671875 C-6.6836792 6.69022217 -6.69938965 5.99372559 -6.71557617 5.27612305 C-5.99182427 1.23608288 -3.84605706 0.42733967 0 0 Z " fill="#F2F4FD" transform="translate(41.375,318.625)"/>
<path d="M0 0 C0.83265381 0.00523682 1.66530762 0.01047363 2.52319336 0.01586914 C3.42231445 0.0190918 4.32143555 0.02231445 5.24780273 0.02563477 C6.66609375 0.03820312 6.66609375 0.03820312 8.11303711 0.05102539 C9.06243164 0.05553711 10.01182617 0.06004883 10.98999023 0.06469727 C13.34356776 0.07652429 15.69702188 0.09300514 18.05053711 0.11352539 C18.05053711 2.09352539 18.05053711 4.07352539 18.05053711 6.11352539 C13.10053711 6.11352539 8.15053711 6.11352539 3.05053711 6.11352539 C3.05053711 6.77352539 3.05053711 7.43352539 3.05053711 8.11352539 C8.00053711 8.11352539 12.95053711 8.11352539 18.05053711 8.11352539 C18.05053711 9.43352539 18.05053711 10.75352539 18.05053711 12.11352539 C12.77053711 12.11352539 7.49053711 12.11352539 2.05053711 12.11352539 C2.05053711 13.10352539 2.05053711 14.09352539 2.05053711 15.11352539 C7.33053711 15.11352539 12.61053711 15.11352539 18.05053711 15.11352539 C18.05053711 16.76352539 18.05053711 18.41352539 18.05053711 20.11352539 C14.73805524 20.14240686 11.42560544 20.16028338 8.11303711 20.17602539 C7.16750977 20.1844043 6.22198242 20.1927832 5.24780273 20.20141602 C3.89912109 20.20625 3.89912109 20.20625 2.52319336 20.21118164 C1.27421265 20.21903687 1.27421265 20.21903687 0 20.22705078 C-1.94946289 20.11352539 -1.94946289 20.11352539 -2.94946289 19.11352539 C-3.04783499 17.78308914 -3.08024881 16.44759195 -3.08227539 15.11352539 C-3.08356445 14.30915039 -3.08485352 13.50477539 -3.08618164 12.67602539 C-3.08231445 11.83040039 -3.07844727 10.98477539 -3.07446289 10.11352539 C-3.07833008 9.26790039 -3.08219727 8.42227539 -3.08618164 7.55102539 C-3.08489258 6.74665039 -3.08360352 5.94227539 -3.08227539 5.11352539 C-3.08114746 4.37102539 -3.08001953 3.62852539 -3.07885742 2.86352539 C-2.89273783 0.34634569 -2.51220716 0.14629635 0 0 Z " fill="#F5F6FD" transform="translate(253.949462890625,318.886474609375)"/>
<path d="M0 0 C2.97 0 5.94 0 9 0 C9 11.55 9 23.1 9 35 C6.03 35 3.06 35 0 35 C0 23.45 0 11.9 0 0 Z " fill="#F1B41C" transform="translate(261,271)"/>
<path d="M0 0 C3.625 0.25 3.625 0.25 5.23754883 1.51489258 C6.72949669 3.38068063 7.56606009 5.04549041 8.44921875 7.26171875 C8.75537109 8.01904297 9.06152344 8.77636719 9.37695312 9.55664062 C9.68568359 10.34232422 9.99441406 11.12800781 10.3125 11.9375 C10.63283203 12.73478516 10.95316406 13.53207031 11.28320312 14.35351562 C12.07065711 16.31627407 12.84874743 18.28278459 13.625 20.25 C11.315 20.25 9.005 20.25 6.625 20.25 C6.625 19.26 6.625 18.27 6.625 17.25 C4.64513918 17.36347619 2.66608402 17.4910935 0.6875 17.625 C-0.96572266 17.72941406 -0.96572266 17.72941406 -2.65234375 17.8359375 C-3.55082031 17.97257812 -4.44929688 18.10921875 -5.375 18.25 C-5.705 18.91 -6.035 19.57 -6.375 20.25 C-8.355 20.25 -10.335 20.25 -12.375 20.25 C-11.75374765 15.72866344 -9.94570184 12.00834654 -7.875 8 C-7.55402344 7.36320312 -7.23304687 6.72640625 -6.90234375 6.0703125 C-3.9648719 0.29369421 -3.9648719 0.29369421 0 0 Z " fill="#F7F8FE" transform="translate(80.375,318.75)"/>
<path d="M0 0 C3.625 0.25 3.625 0.25 5.23754883 1.51489258 C6.72949669 3.38068063 7.56606009 5.04549041 8.44921875 7.26171875 C8.75537109 8.01904297 9.06152344 8.77636719 9.37695312 9.55664062 C9.68568359 10.34232422 9.99441406 11.12800781 10.3125 11.9375 C10.63283203 12.73478516 10.95316406 13.53207031 11.28320312 14.35351562 C12.07065711 16.31627407 12.84874743 18.28278459 13.625 20.25 C11.315 20.25 9.005 20.25 6.625 20.25 C6.625 19.26 6.625 18.27 6.625 17.25 C4.64513918 17.36347619 2.66608402 17.4910935 0.6875 17.625 C-0.96572266 17.72941406 -0.96572266 17.72941406 -2.65234375 17.8359375 C-3.55082031 17.97257812 -4.44929687 18.10921875 -5.375 18.25 C-5.705 18.91 -6.035 19.57 -6.375 20.25 C-8.355 20.25 -10.335 20.25 -12.375 20.25 C-11.75374765 15.72866344 -9.94570184 12.00834654 -7.875 8 C-7.55402344 7.36320312 -7.23304688 6.72640625 -6.90234375 6.0703125 C-3.9648719 0.29369421 -3.9648719 0.29369421 0 0 Z " fill="#F8F9FE" transform="translate(211.375,318.75)"/>
<path d="M0 0 C3.0625 0.3125 3.0625 0.3125 4.5234375 1.359375 C6.80950113 4.26047098 8.23498543 7.53184676 9.75 10.875 C10.07033203 11.56013672 10.39066406 12.24527344 10.72070312 12.95117188 C13.0625 18.03921242 13.0625 18.03921242 13.0625 20.3125 C11.0825 20.3125 9.1025 20.3125 7.0625 20.3125 C6.7325 19.6525 6.4025 18.9925 6.0625 18.3125 C3.2465151 17.84351037 3.2465151 17.84351037 0 17.6875 C-1.10472656 17.61273438 -2.20945313 17.53796875 -3.34765625 17.4609375 C-4.20230469 17.41195313 -5.05695313 17.36296875 -5.9375 17.3125 C-6.2675 18.3025 -6.5975 19.2925 -6.9375 20.3125 C-8.9175 20.3125 -10.8975 20.3125 -12.9375 20.3125 C-11.60050371 16.01868499 -9.95616598 12.0796453 -7.9375 8.0625 C-7.1640625 6.50789063 -7.1640625 6.50789063 -6.375 4.921875 C-3.89162099 0.41400223 -3.89162099 0.41400223 0 0 Z " fill="#F6F7FD" transform="translate(163.9375,318.6875)"/>
<path d="M0 0 C1.65 0 3.3 0 5 0 C5 2.31 5 4.62 5 7 C8.96 7 12.92 7 17 7 C17 4.69 17 2.38 17 0 C18.98 0 20.96 0 23 0 C23 6.6 23 13.2 23 20 C21.02 20 19.04 20 17 20 C17 17.69 17 15.38 17 13 C13.37 13 9.74 13 6 13 C6 15.31 6 17.62 6 20 C4.02 20 2.04 20 0 20 C0 13.4 0 6.8 0 0 Z " fill="#EDEFFC" transform="translate(115,319)"/>
<path d="M0 0 C3.5578125 -0.12375 3.5578125 -0.12375 7.1875 -0.25 C7.92508545 -0.28641602 8.6626709 -0.32283203 9.42260742 -0.36035156 C12.99189175 -0.42012081 14.90094336 -0.0615332 17.94921875 1.83203125 C20 4 20 4 20.625 6.9375 C19.7802387 11.07683039 18.29770546 12.39677821 15 15 C12.11628549 15.37353815 10.01710038 15.48712853 7.1875 15.3125 C4.815625 15.209375 2.44375 15.10625 0 15 C0 10.05 0 5.1 0 0 Z " fill="#2846E3" transform="translate(227,281)"/>
<path d="M0 0 C0.99 0.33 1.98 0.66 3 1 C3.33 1.99 3.66 2.98 4 4 C4.53625 4.45375 5.0725 4.9075 5.625 5.375 C7 7 7 7 6.8125 9.5625 C6 12 6 12 4 14 C4.04125 14.928125 4.0825 15.85625 4.125 16.8125 C3.96661208 20.85139206 2.86192811 22.21756989 0 25 C-2.25 25.8125 -2.25 25.8125 -4 26 C-3.67 23.69 -3.34 21.38 -3 19 C-3.66 20.98 -4.32 22.96 -5 25 C-6.65 24.67 -8.3 24.34 -10 24 C-10 25.32 -10 26.64 -10 28 C-11.32 28 -12.64 28 -14 28 C-13.4716429 23.21622626 -12.11191317 19.97788207 -9.625 15.875 C-9.01914062 14.86179687 -8.41328125 13.84859375 -7.7890625 12.8046875 C-6 10 -6 10 -4.34375 7.80078125 C-2.74999929 5.66496998 -1.93924241 3.48228352 -1 1 C-0.67 0.67 -0.34 0.34 0 0 Z " fill="#F5F5F5" transform="translate(273,48)"/>
<path d="M0 0 C1.51400391 0.01740234 1.51400391 0.01740234 3.05859375 0.03515625 C4.07050781 0.04417969 5.08242188 0.05320313 6.125 0.0625 C7.29869141 0.07990234 7.29869141 0.07990234 8.49609375 0.09765625 C8.12109375 2.53515625 8.12109375 2.53515625 7.49609375 5.09765625 C6.50609375 5.59265625 6.50609375 5.59265625 5.49609375 6.09765625 C5.16609375 5.76765625 4.83609375 5.43765625 4.49609375 5.09765625 C4.54378906 5.8246875 4.59148437 6.55171875 4.640625 7.30078125 C4.4778923 10.44987892 3.73241995 12.12464617 2.18359375 14.84765625 C1.75433594 15.62625 1.32507813 16.40484375 0.8828125 17.20703125 C-0.50390625 19.09765625 -0.50390625 19.09765625 -3.50390625 20.09765625 C-3.17390625 21.08765625 -2.84390625 22.07765625 -2.50390625 23.09765625 C-3.44140625 25.28515625 -3.44140625 25.28515625 -4.50390625 27.09765625 C-6.15390625 27.09765625 -7.80390625 27.09765625 -9.50390625 27.09765625 C-9.50390625 25.77765625 -9.50390625 24.45765625 -9.50390625 23.09765625 C-7.85390625 22.76765625 -6.20390625 22.43765625 -4.50390625 22.09765625 C-6.15390625 21.76765625 -7.80390625 21.43765625 -9.50390625 21.09765625 C-9.50390625 19.77765625 -9.50390625 18.45765625 -9.50390625 17.09765625 C-10.16390625 17.75765625 -10.82390625 18.41765625 -11.50390625 19.09765625 C-11.62890625 16.22265625 -11.62890625 16.22265625 -11.50390625 13.09765625 C-10.84390625 12.43765625 -10.18390625 11.77765625 -9.50390625 11.09765625 C-9.50390625 10.10765625 -9.50390625 9.11765625 -9.50390625 8.09765625 C-8.84390625 7.43765625 -8.18390625 6.77765625 -7.50390625 6.09765625 C-6.18390625 6.09765625 -4.86390625 6.09765625 -3.50390625 6.09765625 C-3.52453125 5.29328125 -3.54515625 4.48890625 -3.56640625 3.66015625 C-3.48296946 0.23924791 -3.41254497 0.13309458 0 0 Z " fill="#F6F6F6" transform="translate(257.50390625,42.90234375)"/>
<path d="M0 0 C1.28132812 0.00902344 2.56265625 0.01804687 3.8828125 0.02734375 C4.87023437 0.03894531 5.85765625 0.05054688 6.875 0.0625 C6.875 2.0425 6.875 4.0225 6.875 6.0625 C0.44 6.5575 0.44 6.5575 -6.125 7.0625 C-7.19037205 11.53952364 -7.19037205 11.53952364 -7.125 14.0625 C-0.195 14.5575 -0.195 14.5575 6.875 15.0625 C6.875 16.7125 6.875 18.3625 6.875 20.0625 C4.47725255 20.19822155 2.08724755 20.29686868 -0.3125 20.375 C-1.32280273 20.4378418 -1.32280273 20.4378418 -2.35351562 20.50195312 C-6.34336318 20.59926648 -7.9239502 20.22704409 -11.05078125 17.66796875 C-13.24991285 14.9055944 -14.02814956 13.77273659 -14.5 10.3125 C-13.9778401 5.7871142 -12.28270622 4.2953897 -9.125 1.0625 C-6.12186252 -0.43906874 -3.33432478 -0.03031204 0 0 Z " fill="#F2F4FD" transform="translate(190.125,318.9375)"/>
<path d="M0 0 C7.59 0 15.18 0 23 0 C23 1.98 23 3.96 23 6 C20.36 6 17.72 6 15 6 C15 10.62 15 15.24 15 20 C13.02 20 11.04 20 9 20 C9 15.38 9 10.76 9 6 C6.03 6 3.06 6 0 6 C0 4.02 0 2.04 0 0 Z " fill="#EBEEFC" transform="translate(90,319)"/>
<path d="M0 0 C0.33 0 0.66 0 1 0 C1 8.25 1 16.5 1 25 C-7.58 25 -16.16 25 -25 25 C-21 23 -21 23 -19.0703125 22.10546875 C-9.90512106 17.78052901 -4.24508181 11.98688483 -0.6875 2.5 C-0.460625 1.675 -0.23375 0.85 0 0 Z " fill="#000000" transform="translate(355,331)"/>
<path d="M0 0 C6.10648961 0.31315331 10.39141108 3.22534622 15 7 C21.0500224 14.6013102 21.74478088 21.52409559 21 31 C19.68840081 37.00272039 17.03402313 42.00104974 11.8359375 45.42578125 C10.12424858 46.4512048 8.40241964 47.45985381 6.671875 48.453125 C4.07686199 49.95550095 1.5646602 51.53574719 -0.9375 53.1875 C-1.64777344 53.65542969 -2.35804688 54.12335938 -3.08984375 54.60546875 C-5.03984367 55.94701875 -5.03984367 55.94701875 -6.62890625 57.67578125 C-8 59 -8 59 -10 59 C-10.12375 59.5775 -10.2475 60.155 -10.375 60.75 C-11.34400003 64.23840009 -12.23370798 66.32949448 -15 68.75 C-19.37131373 70.57138072 -23.33650844 70.81071863 -28 70 C-30.70140974 68.60933345 -31.93515011 67.33654067 -34 65 C-34 64.01 -34 63.02 -34 62 C-30.89916929 62.93746045 -28.21175817 63.87087917 -25.4375 65.5625 C-22.90783303 67.05435488 -20.88701072 67.5875699 -18 68 C-20.36620011 65.38472619 -22.942048 63.73559438 -26 62 C-25.01 61.505 -25.01 61.505 -24 61 C-21.6171875 61.99609375 -21.6171875 61.99609375 -18.875 63.4375 C-17.96492188 63.91058594 -17.05484375 64.38367188 -16.1171875 64.87109375 C-15.41851562 65.24363281 -14.71984375 65.61617188 -14 66 C-14 64.68 -14 63.36 -14 62 C-13.01 61.505 -13.01 61.505 -12 61 C-11.67 60.01 -11.34 59.02 -11 58 C-9.01349423 56.25269169 -7.04650109 54.6474729 -4.9375 53.0625 C-4.05384766 52.38828003 -4.05384766 52.38828003 -3.15234375 51.70043945 C-0.04953644 49.378012 2.97122617 47.32658497 6.5 45.6875 C12.69783621 42.69925754 15.74099492 38.63065539 18.26953125 32.38671875 C20.37824721 25.49674307 19.07570956 19.69739302 16.18359375 13.22265625 C12.61579554 6.52273155 6.62197017 4.02167571 0 1 C0 0.67 0 0.34 0 0 Z " fill="#4E4A47" transform="translate(268,33)"/>
<path d="M0 0 C0.66 1.32 1.32 2.64 2 4 C8.04919518 15.34926402 13.66938998 20.20939656 26 24 C26 24.33 26 24.66 26 25 C17.42 25 8.84 25 0 25 C0 16.75 0 8.5 0 0 Z " fill="#000000" transform="translate(0,331)"/>
<path d="M0 0 C7.92 0 15.84 0 24 0 C24 8.25 24 16.5 24 25 C23.34 23.68 22.68 22.36 22 21 C16.48246151 10.64820952 10.96353046 5.22630426 0 1 C0 0.67 0 0.34 0 0 Z " fill="#000000" transform="translate(332,0)"/>
<path d="M0 0 C7.92 0 15.84 0 24 0 C21.68330248 1.54446501 19.75183254 2.58169002 17.25 3.6875 C9.55415396 7.52127624 5.36050732 13.27561113 2 21 C1.34 22.32 0.68 23.64 0 25 C0 16.75 0 8.5 0 0 Z " fill="#000000" transform="translate(0,0)"/>
<path d="M0 0 C3.1875 -0.3125 3.1875 -0.3125 7 0 C9.8125 2.5 9.8125 2.5 12 5 C12.66 5 13.32 5 14 5 C14.556875 4.175 15.11375 3.35 15.6875 2.5 C18 0 18 0 21.75 -0.3125 C22.8225 -0.209375 23.895 -0.10625 25 0 C24.06558465 1.27310312 23.12732889 2.543388 22.1875 3.8125 C21.66542969 4.52019531 21.14335937 5.22789062 20.60546875 5.95703125 C19 8 19 8 17.34375 9.46875 C15.54997104 11.51282369 15.50689083 13.00490651 15.3125 15.6875 C15.24675781 16.49574219 15.18101562 17.30398438 15.11328125 18.13671875 C15.07589844 18.75160156 15.03851563 19.36648438 15 20 C13.35 20 11.7 20 10 20 C10.020625 18.72125 10.04125 17.4425 10.0625 16.125 C9.47923131 10.19823749 5.97972303 7.05906478 1.93359375 2.96875 C0 1 0 1 0 0 Z " fill="#F3F5FD" transform="translate(304,319)"/>
<path d="M0 0 C2.97 0 5.94 0 9 0 C7.28571429 15.71428571 7.28571429 15.71428571 5 18 C2.66702567 18.04092937 0.33294775 18.04241723 -2 18 C-1.03644647 5.33029613 -1.03644647 5.33029613 0 0 Z " fill="#ECB221" transform="translate(276,271)"/>
<path d="M0 0 C0.66 0 1.32 0 2 0 C2 1.98 2 3.96 2 6 C2.99 6.33 3.98 6.66 5 7 C4 8 4 8 0.8125 8.375 C-6.82097201 9.62638885 -10.9230042 13.51744536 -16 19 C-13.702779 20.74271938 -11.40133271 22.39911152 -9 24 C-12 25 -12 25 -14.0078125 24.25 C-19.73659281 20.86769428 -19.73659281 20.86769428 -21.0625 16.5 C-21.00870255 13.48734272 -20.79068587 10.89918151 -20 8 C-19.278125 8.144375 -18.55625 8.28875 -17.8125 8.4375 C-16.4203125 8.7159375 -16.4203125 8.7159375 -15 9 C-14.175 9.226875 -13.35 9.45375 -12.5 9.6875 C-9.44644205 10.06919474 -7.73349318 9.32769669 -5 8 C-5.33 6.68 -5.66 5.36 -6 4 C-3.03 4.495 -3.03 4.495 0 5 C0 3.35 0 1.7 0 0 Z " fill="#887950" transform="translate(268,67)"/>
<path d="M0 0 C0.99 0.33 1.98 0.66 3 1 C3.33 1.99 3.66 2.98 4 4 C4.53625 4.45375 5.0725 4.9075 5.625 5.375 C7 7 7 7 6.8125 9.5625 C6 12 6 12 4 14 C4 14.99 4 15.98 4 17 C4 17.99 4 18.98 4 20 C3.34 20.66 2.68 21.32 2 22 C2 20.35 2 18.7 2 17 C-0.64 16.67 -3.28 16.34 -6 16 C-5.34 15.01 -4.68 14.02 -4 13 C-4.04125 12.0925 -4.0825 11.185 -4.125 10.25 C-3.9559165 5.85382908 -2.35403607 3.67818136 0 0 Z " fill="#D9D9D9" transform="translate(273,48)"/>
<path d="M0 0 C1.51400391 0.01740234 1.51400391 0.01740234 3.05859375 0.03515625 C4.07050781 0.04417969 5.08242188 0.05320313 6.125 0.0625 C7.29869141 0.07990234 7.29869141 0.07990234 8.49609375 0.09765625 C8.12109375 2.53515625 8.12109375 2.53515625 7.49609375 5.09765625 C6.50609375 5.59265625 6.50609375 5.59265625 5.49609375 6.09765625 C5.16609375 5.76765625 4.83609375 5.43765625 4.49609375 5.09765625 C4.49609375 6.74765625 4.49609375 8.39765625 4.49609375 10.09765625 C3.87734375 10.15953125 3.25859375 10.22140625 2.62109375 10.28515625 C0.21848234 10.92657525 0.21848234 10.92657525 -0.75390625 13.66015625 C-1.00140625 14.46453125 -1.24890625 15.26890625 -1.50390625 16.09765625 C-1.64828125 15.45828125 -1.79265625 14.81890625 -1.94140625 14.16015625 C-2.31397806 12.12220479 -2.31397806 12.12220479 -3.50390625 11.09765625 C-5.83208589 10.73004894 -8.16574475 10.39524044 -10.50390625 10.09765625 C-9.25390625 8.09765625 -9.25390625 8.09765625 -7.50390625 6.09765625 C-6.18390625 6.09765625 -4.86390625 6.09765625 -3.50390625 6.09765625 C-3.52453125 5.29328125 -3.54515625 4.48890625 -3.56640625 3.66015625 C-3.48296946 0.23924791 -3.41254497 0.13309458 0 0 Z " fill="#F2F2F2" transform="translate(257.50390625,42.90234375)"/>
<path d="M0 0 C6.8359375 -0.1953125 6.8359375 -0.1953125 9 0 C11 2 11 2 11.3125 4.5 C11.1578125 5.7375 11.1578125 5.7375 11 7 C7.91111478 9.05925681 7.29064073 9.2390374 3.8125 9.125 C1.9253125 9.063125 1.9253125 9.063125 0 9 C0 6.03 0 3.06 0 0 Z " fill="#2D4BE5" transform="translate(232,325)"/>
<path d="M0 0 C4.86872054 0.59559106 8.59328841 2.72477415 12.8125 5.0625 C13.50537109 5.43955078 14.19824219 5.81660156 14.91210938 6.20507812 C16.61128985 7.13083852 18.30609425 8.06462312 20 9 C20 10.32 20 11.64 20 13 C17.04703576 12.37666027 14.72453208 11.43098208 12.109375 9.93359375 C11.40039062 9.53076172 10.69140625 9.12792969 9.9609375 8.71289062 C9.23132813 8.29201172 8.50171875 7.87113281 7.75 7.4375 C7.00492188 7.01275391 6.25984375 6.58800781 5.4921875 6.15039062 C3.65901039 5.10453958 1.82917323 4.05283808 0 3 C0 2.01 0 1.02 0 0 Z " fill="#F8F8F8" transform="translate(234,86)"/>
<path d="M0 0 C5.23085363 0.53031696 8.86853255 2.26749859 13.3125 4.875 C14.26092773 5.40287109 14.26092773 5.40287109 15.22851562 5.94140625 C19.87323778 8.61971335 19.87323778 8.61971335 21 12 C15.60973772 11.47104903 11.75770511 9.53666304 7.125 6.9375 C6.09246094 6.37192383 6.09246094 6.37192383 5.0390625 5.79492188 C3.3550787 4.87106965 1.67692533 3.93660333 0 3 C0 2.01 0 1.02 0 0 Z " fill="#F6F6F6" transform="translate(236,82)"/>
<path d="M0 0 C5.84450583 1.53802785 11.12711522 4.4560838 16 8 C16 8.66 16 9.32 16 10 C9.60030835 9.7276727 4.75765913 7.33691377 0 3 C0 2.01 0 1.02 0 0 Z " fill="#F2F2F2" transform="translate(234,91)"/>
<path d="M0 0 C0.99 0.33 1.98 0.66 3 1 C3.33 1.99 3.66 2.98 4 4 C4.53625 4.45375 5.0725 4.9075 5.625 5.375 C6.07875 5.91125 6.5325 6.4475 7 7 C6.6875 9.6875 6.6875 9.6875 6 12 C5.01 12.33 4.02 12.66 3 13 C2.34 12.67 1.68 12.34 1 12 C1 9 1 9 2 8 C1.34 7.67 0.68 7.34 0 7 C0 6.34 0 5.68 0 5 C-0.99 4.67 -1.98 4.34 -3 4 C-2.01 2.68 -1.02 1.36 0 0 Z " fill="#F0F0F0" transform="translate(273,48)"/>
<path d="M0 0 C0.66 0 1.32 0 2 0 C2 0.66 2 1.32 2 2 C3.98 2.66 5.96 3.32 8 4 C6.02 6.31 4.04 8.62 2 11 C1.01 10.67 0.02 10.34 -1 10 C-0.67 6.7 -0.34 3.4 0 0 Z " fill="#FAB911" transform="translate(248,75)"/>
<path d="M0 0 C4.60428934 1.31551124 8.18320388 3.09196486 12 6 C12 6.66 12 7.32 12 8 C9.08181329 8.34740318 6.86234943 8.50109494 4.265625 6.9921875 C2.625 5.6875 2.625 5.6875 0 3 C0 2.01 0 1.02 0 0 Z " fill="#414248" transform="translate(234,95)"/>
<path d="M0 0 C2.64 0.33 5.28 0.66 8 1 C7.4140625 7.15234375 7.4140625 7.15234375 7 9 C6.01 9.495 6.01 9.495 5 10 C4.67 8.35 4.34 6.7 4 5 C1.69 4.67 -0.62 4.34 -3 4 C-2.01 2.68 -1.02 1.36 0 0 Z " fill="#D4D4D4" transform="translate(250,49)"/>
<path d="M0 0 C2.89932357 2.39509338 3.50168276 4.31245243 4 8 C1.69 8 -0.62 8 -3 8 C-1.125 2.25 -1.125 2.25 0 0 Z " fill="#4A64E9" transform="translate(211,324)"/>
<path d="M0 0 C2.89932357 2.39509338 3.50168276 4.31245243 4 8 C1.69 8 -0.62 8 -3 8 C-1.125 2.25 -1.125 2.25 0 0 Z " fill="#4A63E9" transform="translate(80,324)"/>
<path d="M0 0 C4.23429756 1.31061591 8.07407404 2.94356259 12 5 C12.33 4.01 12.66 3.02 13 2 C13.33 2.99 13.66 3.98 14 5 C8.5 9 8.5 9 4 9 C4 8.34 4 7.68 4 7 C5.32 7 6.64 7 8 7 C5.62947392 4.37994486 3.0220849 2.79691535 0 1 C0 0.67 0 0.34 0 0 Z " fill="#60626D" transform="translate(242,94)"/>
<path d="M0 0 C0.99 0 1.98 0 3 0 C2.67 3.3 2.34 6.6 2 10 C1.01 10 0.02 10 -1 10 C-0.67 6.7 -0.34 3.4 0 0 Z " fill="#D2A43A" transform="translate(267,18)"/>
<path d="M0 0 C0.66 0 1.32 0 2 0 C3.4606285 2.64738916 4 3.89448334 4 7 C2.02 7 0.04 7 -2 7 C-1.34 4.69 -0.68 2.38 0 0 Z " fill="#3754E7" transform="translate(163,324)"/>
<path d="M0 0 C0.99 0 1.98 0 3 0 C3.33 3.3 3.66 6.6 4 10 C3.01 9.67 2.02 9.34 1 9 C0.67 6.03 0.34 3.06 0 0 Z " fill="#DBA832" transform="translate(253,18)"/>
<path d="M0 0 C3.71888239 0.50712033 6.73454239 1.11608215 10 3 C10 3.66 10 4.32 10 5 C8.51793505 4.745504 7.03931385 4.47088238 5.5625 4.1875 C4.73878906 4.03667969 3.91507812 3.88585937 3.06640625 3.73046875 C2.38449219 3.48941406 1.70257813 3.24835938 1 3 C0.67 2.01 0.34 1.02 0 0 Z " fill="#DFAA2E" transform="translate(292,69)"/>
<path d="M0 0 C0.66 0 1.32 0 2 0 C1.43697042 3.94120709 0.3208055 6.7508723 -2 10 C-2.66 10 -3.32 10 -4 10 C-3.43697042 6.05879291 -2.3208055 3.2491277 0 0 Z " fill="#E1AB2C" transform="translate(281,22)"/>
<path d="M0 0 C3.71888239 0.50712033 6.73454239 1.11608215 10 3 C10 3.66 10 4.32 10 5 C8.51793505 4.745504 7.03931385 4.47088238 5.5625 4.1875 C4.73878906 4.03667969 3.91507813 3.88585938 3.06640625 3.73046875 C2.38449219 3.48941406 1.70257813 3.24835937 1 3 C0.67 2.01 0.34 1.02 0 0 Z " fill="#E1AB2C" transform="translate(222,45)"/>
<path d="M0 0 C3.43752007 1.5277867 6.18953688 3.50181056 9 6 C9 6.66 9 7.32 9 8 C5.08158173 6.69386058 2.67359191 5.16870152 0 2 C0 1.34 0 0.68 0 0 Z " fill="#E2AC2B" transform="translate(229,32)"/>
<path d="M0 0 C-2.6598561 3.44216672 -5.90288286 3.99504674 -10 5 C-10 4.01 -10 3.02 -10 2 C-6.49223216 0.39644899 -3.85645121 -0.22036864 0 0 Z " fill="#E4AD29" transform="translate(302,44)"/>
<path d="M0 0 C-0.34021964 3.17538332 -1.02466604 4.02276865 -3.4375 6.25 C-6 8 -6 8 -8 8 C-6.48291727 4.46014029 -4.24676932 0 0 0 Z " fill="#EAB023" transform="translate(294,31)"/>
<path d="M0 0 C3.76607955 1.25535985 4.26441793 2.52883585 6 6 C6 6.99 6 7.98 6 9 C3 8 3 8 1.3125 5.625 C0 3 0 3 0 0 Z " fill="#E9B024" transform="translate(240,23)"/>
<path d="M0 0 C3.33727786 1.17255709 5.77437487 2.18868404 8 5 C8 5.66 8 6.32 8 7 C4.66272214 5.82744291 2.22562513 4.81131596 0 2 C0 1.34 0 0.68 0 0 Z " fill="#F0B41D" transform="translate(287,79)"/>
<path d="M0 0 C0.33 1.32 0.66 2.64 1 4 C0.01 4.33 -0.98 4.66 -2 5 C-2.66 4.67 -3.32 4.34 -4 4 C-4 3.01 -4 2.02 -4 1 C-2.68 0.67 -1.36 0.34 0 0 Z " fill="#FBFBFB" transform="translate(278,56)"/>
</svg>
